<mxfile host="app.diagrams.net" modified="2023-12-21T09:07:29.787Z" agent="Mozilla/5.0 (Windows NT 10.0; Win64; x64) AppleWebKit/537.36 (KHTML, like Gecko) Chrome/120.0.0.0 Safari/537.36" etag="xNBnWEJIlCa0vB1-Gl6l" version="22.1.11" type="google">
  <diagram name="第 1 页" id="OIE_0vwGFnkPrdjzz_kU">
    <mxGraphModel grid="0" page="1" gridSize="10" guides="1" tooltips="1" connect="1" arrows="1" fold="1" pageScale="1" pageWidth="4681" pageHeight="3300" math="0" shadow="0">
      <root>
        <mxCell id="0" />
        <mxCell id="1" parent="0" />
        <mxCell id="r9ewl-HwCLuS1mZX0_Ru-2" value="" style="shape=actor;whiteSpace=wrap;html=1;" vertex="1" parent="1">
          <mxGeometry x="187" y="320" width="40" height="60" as="geometry" />
        </mxCell>
        <mxCell id="r9ewl-HwCLuS1mZX0_Ru-3" value="" style="shape=actor;whiteSpace=wrap;html=1;" vertex="1" parent="1">
          <mxGeometry x="900" y="320" width="40" height="60" as="geometry" />
        </mxCell>
        <mxCell id="r9ewl-HwCLuS1mZX0_Ru-4" value="購物車管理" style="ellipse;whiteSpace=wrap;html=1;" vertex="1" parent="1">
          <mxGeometry x="355" y="160" width="90" height="40" as="geometry" />
        </mxCell>
        <mxCell id="r9ewl-HwCLuS1mZX0_Ru-12" value="搜索劉覽商品" style="ellipse;whiteSpace=wrap;html=1;" vertex="1" parent="1">
          <mxGeometry x="355" y="210" width="90" height="40" as="geometry" />
        </mxCell>
        <mxCell id="r9ewl-HwCLuS1mZX0_Ru-13" value="填寫/確認訂單" style="ellipse;whiteSpace=wrap;html=1;" vertex="1" parent="1">
          <mxGeometry x="355" y="260" width="90" height="40" as="geometry" />
        </mxCell>
        <mxCell id="r9ewl-HwCLuS1mZX0_Ru-14" value="選擇支付方式" style="ellipse;whiteSpace=wrap;html=1;" vertex="1" parent="1">
          <mxGeometry x="355" y="310" width="90" height="40" as="geometry" />
        </mxCell>
        <mxCell id="r9ewl-HwCLuS1mZX0_Ru-15" value="查詢訂單" style="ellipse;whiteSpace=wrap;html=1;" vertex="1" parent="1">
          <mxGeometry x="355" y="370" width="90" height="40" as="geometry" />
        </mxCell>
        <mxCell id="r9ewl-HwCLuS1mZX0_Ru-16" value="刪除訂單" style="ellipse;whiteSpace=wrap;html=1;" vertex="1" parent="1">
          <mxGeometry x="355" y="420" width="90" height="40" as="geometry" />
        </mxCell>
        <mxCell id="r9ewl-HwCLuS1mZX0_Ru-17" value="用戶退出" style="ellipse;whiteSpace=wrap;html=1;" vertex="1" parent="1">
          <mxGeometry x="355" y="470" width="90" height="40" as="geometry" />
        </mxCell>
        <mxCell id="r9ewl-HwCLuS1mZX0_Ru-18" value="&lt;font style=&quot;font-size: 11px;&quot;&gt;查看修改個人訊息&lt;/font&gt;" style="ellipse;whiteSpace=wrap;html=1;" vertex="1" parent="1">
          <mxGeometry x="355" y="520" width="90" height="40" as="geometry" />
        </mxCell>
        <mxCell id="r9ewl-HwCLuS1mZX0_Ru-19" value="" style="endArrow=none;html=1;rounded=0;exitX=0.9;exitY=0.5;exitDx=0;exitDy=0;exitPerimeter=0;" edge="1" parent="1" source="r9ewl-HwCLuS1mZX0_Ru-2">
          <mxGeometry width="50" height="50" relative="1" as="geometry">
            <mxPoint x="340" y="250" as="sourcePoint" />
            <mxPoint x="390" y="200" as="targetPoint" />
          </mxGeometry>
        </mxCell>
        <mxCell id="r9ewl-HwCLuS1mZX0_Ru-20" value="" style="endArrow=none;html=1;rounded=0;exitX=0.9;exitY=0.5;exitDx=0;exitDy=0;exitPerimeter=0;entryX=0;entryY=1;entryDx=0;entryDy=0;" edge="1" parent="1" source="r9ewl-HwCLuS1mZX0_Ru-2" target="r9ewl-HwCLuS1mZX0_Ru-12">
          <mxGeometry width="50" height="50" relative="1" as="geometry">
            <mxPoint x="330" y="300" as="sourcePoint" />
            <mxPoint x="380" y="250" as="targetPoint" />
          </mxGeometry>
        </mxCell>
        <mxCell id="r9ewl-HwCLuS1mZX0_Ru-22" value="" style="endArrow=none;html=1;rounded=0;exitX=0.975;exitY=0.617;exitDx=0;exitDy=0;exitPerimeter=0;entryX=0;entryY=1;entryDx=0;entryDy=0;" edge="1" parent="1" source="r9ewl-HwCLuS1mZX0_Ru-2" target="r9ewl-HwCLuS1mZX0_Ru-13">
          <mxGeometry width="50" height="50" relative="1" as="geometry">
            <mxPoint x="330" y="350" as="sourcePoint" />
            <mxPoint x="380" y="300" as="targetPoint" />
          </mxGeometry>
        </mxCell>
        <mxCell id="r9ewl-HwCLuS1mZX0_Ru-23" value="" style="endArrow=none;html=1;rounded=0;exitX=1.025;exitY=0.633;exitDx=0;exitDy=0;exitPerimeter=0;" edge="1" parent="1" source="r9ewl-HwCLuS1mZX0_Ru-2">
          <mxGeometry width="50" height="50" relative="1" as="geometry">
            <mxPoint x="310" y="390" as="sourcePoint" />
            <mxPoint x="360" y="340" as="targetPoint" />
          </mxGeometry>
        </mxCell>
        <mxCell id="r9ewl-HwCLuS1mZX0_Ru-24" value="" style="endArrow=none;html=1;rounded=0;exitX=1;exitY=0.75;exitDx=0;exitDy=0;" edge="1" parent="1" source="r9ewl-HwCLuS1mZX0_Ru-2">
          <mxGeometry width="50" height="50" relative="1" as="geometry">
            <mxPoint x="310" y="430" as="sourcePoint" />
            <mxPoint x="360" y="380" as="targetPoint" />
          </mxGeometry>
        </mxCell>
        <mxCell id="r9ewl-HwCLuS1mZX0_Ru-25" value="" style="endArrow=none;html=1;rounded=0;exitX=1;exitY=0.75;exitDx=0;exitDy=0;" edge="1" parent="1" source="r9ewl-HwCLuS1mZX0_Ru-2">
          <mxGeometry width="50" height="50" relative="1" as="geometry">
            <mxPoint x="330" y="470" as="sourcePoint" />
            <mxPoint x="380" y="420" as="targetPoint" />
          </mxGeometry>
        </mxCell>
        <mxCell id="r9ewl-HwCLuS1mZX0_Ru-26" value="" style="endArrow=none;html=1;rounded=0;exitX=1;exitY=0.75;exitDx=0;exitDy=0;" edge="1" parent="1" source="r9ewl-HwCLuS1mZX0_Ru-2">
          <mxGeometry width="50" height="50" relative="1" as="geometry">
            <mxPoint x="340" y="520" as="sourcePoint" />
            <mxPoint x="390" y="470" as="targetPoint" />
          </mxGeometry>
        </mxCell>
        <mxCell id="r9ewl-HwCLuS1mZX0_Ru-27" value="" style="endArrow=none;html=1;rounded=0;" edge="1" parent="1" source="r9ewl-HwCLuS1mZX0_Ru-2">
          <mxGeometry width="50" height="50" relative="1" as="geometry">
            <mxPoint x="340" y="570" as="sourcePoint" />
            <mxPoint x="390" y="520" as="targetPoint" />
          </mxGeometry>
        </mxCell>
        <mxCell id="r9ewl-HwCLuS1mZX0_Ru-28" value="添加商品到購物車" style="ellipse;whiteSpace=wrap;html=1;" vertex="1" parent="1">
          <mxGeometry x="520" y="110" width="100" height="40" as="geometry" />
        </mxCell>
        <mxCell id="r9ewl-HwCLuS1mZX0_Ru-29" value="刪除購物車商品" style="ellipse;whiteSpace=wrap;html=1;" vertex="1" parent="1">
          <mxGeometry x="520" y="160" width="100" height="40" as="geometry" />
        </mxCell>
        <mxCell id="r9ewl-HwCLuS1mZX0_Ru-30" value="瀏覽購物車商品" style="ellipse;whiteSpace=wrap;html=1;" vertex="1" parent="1">
          <mxGeometry x="520" y="210" width="100" height="40" as="geometry" />
        </mxCell>
        <mxCell id="r9ewl-HwCLuS1mZX0_Ru-31" value="登錄/註冊" style="ellipse;whiteSpace=wrap;html=1;" vertex="1" parent="1">
          <mxGeometry x="525" y="330" width="90" height="40" as="geometry" />
        </mxCell>
        <mxCell id="r9ewl-HwCLuS1mZX0_Ru-32" value="修改零食訊息" style="ellipse;whiteSpace=wrap;html=1;" vertex="1" parent="1">
          <mxGeometry x="690" y="160" width="90" height="40" as="geometry" />
        </mxCell>
        <mxCell id="r9ewl-HwCLuS1mZX0_Ru-33" value="刪除零食訊息" style="ellipse;whiteSpace=wrap;html=1;" vertex="1" parent="1">
          <mxGeometry x="690" y="230" width="90" height="40" as="geometry" />
        </mxCell>
        <mxCell id="r9ewl-HwCLuS1mZX0_Ru-34" value="添加零食訊息" style="ellipse;whiteSpace=wrap;html=1;" vertex="1" parent="1">
          <mxGeometry x="690" y="300" width="90" height="40" as="geometry" />
        </mxCell>
        <mxCell id="r9ewl-HwCLuS1mZX0_Ru-35" value="維護購物車" style="ellipse;whiteSpace=wrap;html=1;" vertex="1" parent="1">
          <mxGeometry x="690" y="400" width="90" height="40" as="geometry" />
        </mxCell>
        <mxCell id="r9ewl-HwCLuS1mZX0_Ru-37" value="管理留言" style="ellipse;whiteSpace=wrap;html=1;" vertex="1" parent="1">
          <mxGeometry x="690" y="470" width="90" height="40" as="geometry" />
        </mxCell>
        <mxCell id="r9ewl-HwCLuS1mZX0_Ru-38" style="edgeStyle=orthogonalEdgeStyle;rounded=0;orthogonalLoop=1;jettySize=auto;html=1;exitX=0.5;exitY=1;exitDx=0;exitDy=0;" edge="1" parent="1" source="r9ewl-HwCLuS1mZX0_Ru-31" target="r9ewl-HwCLuS1mZX0_Ru-31">
          <mxGeometry relative="1" as="geometry" />
        </mxCell>
        <mxCell id="r9ewl-HwCLuS1mZX0_Ru-39" value="" style="endArrow=none;dashed=1;html=1;rounded=0;exitX=1;exitY=0.5;exitDx=0;exitDy=0;" edge="1" parent="1" source="r9ewl-HwCLuS1mZX0_Ru-4">
          <mxGeometry width="50" height="50" relative="1" as="geometry">
            <mxPoint x="470" y="180" as="sourcePoint" />
            <mxPoint x="520" y="130" as="targetPoint" />
          </mxGeometry>
        </mxCell>
        <mxCell id="r9ewl-HwCLuS1mZX0_Ru-43" value="包含" style="edgeLabel;html=1;align=center;verticalAlign=middle;resizable=0;points=[];" connectable="0" vertex="1" parent="r9ewl-HwCLuS1mZX0_Ru-39">
          <mxGeometry x="0.1262" y="-1" relative="1" as="geometry">
            <mxPoint as="offset" />
          </mxGeometry>
        </mxCell>
        <mxCell id="r9ewl-HwCLuS1mZX0_Ru-41" value="" style="endArrow=none;dashed=1;html=1;rounded=0;exitX=1;exitY=0.5;exitDx=0;exitDy=0;" edge="1" parent="1" source="r9ewl-HwCLuS1mZX0_Ru-4">
          <mxGeometry width="50" height="50" relative="1" as="geometry">
            <mxPoint x="470" y="230" as="sourcePoint" />
            <mxPoint x="520" y="180" as="targetPoint" />
          </mxGeometry>
        </mxCell>
        <mxCell id="r9ewl-HwCLuS1mZX0_Ru-44" value="包含" style="edgeLabel;html=1;align=center;verticalAlign=middle;resizable=0;points=[];" connectable="0" vertex="1" parent="r9ewl-HwCLuS1mZX0_Ru-41">
          <mxGeometry x="-0.0667" y="-3" relative="1" as="geometry">
            <mxPoint as="offset" />
          </mxGeometry>
        </mxCell>
        <mxCell id="r9ewl-HwCLuS1mZX0_Ru-42" value="" style="endArrow=none;dashed=1;html=1;rounded=0;exitX=0.978;exitY=0.75;exitDx=0;exitDy=0;exitPerimeter=0;" edge="1" parent="1" source="r9ewl-HwCLuS1mZX0_Ru-4">
          <mxGeometry width="50" height="50" relative="1" as="geometry">
            <mxPoint x="470" y="280" as="sourcePoint" />
            <mxPoint x="520" y="230" as="targetPoint" />
          </mxGeometry>
        </mxCell>
        <mxCell id="r9ewl-HwCLuS1mZX0_Ru-45" value="包含" style="edgeLabel;html=1;align=center;verticalAlign=middle;resizable=0;points=[];" connectable="0" vertex="1" parent="r9ewl-HwCLuS1mZX0_Ru-42">
          <mxGeometry x="-0.1446" relative="1" as="geometry">
            <mxPoint as="offset" />
          </mxGeometry>
        </mxCell>
        <mxCell id="r9ewl-HwCLuS1mZX0_Ru-46" value="" style="endArrow=none;html=1;rounded=0;exitX=1;exitY=0.75;exitDx=0;exitDy=0;entryX=0;entryY=0.5;entryDx=0;entryDy=0;" edge="1" parent="1" source="r9ewl-HwCLuS1mZX0_Ru-2" target="r9ewl-HwCLuS1mZX0_Ru-31">
          <mxGeometry width="50" height="50" relative="1" as="geometry">
            <mxPoint x="500" y="415" as="sourcePoint" />
            <mxPoint x="550" y="365" as="targetPoint" />
          </mxGeometry>
        </mxCell>
        <mxCell id="r9ewl-HwCLuS1mZX0_Ru-47" value="" style="endArrow=none;html=1;rounded=0;exitX=1;exitY=0.5;exitDx=0;exitDy=0;" edge="1" parent="1" source="r9ewl-HwCLuS1mZX0_Ru-31">
          <mxGeometry width="50" height="50" relative="1" as="geometry">
            <mxPoint x="850" y="410" as="sourcePoint" />
            <mxPoint x="900" y="360" as="targetPoint" />
          </mxGeometry>
        </mxCell>
        <mxCell id="r9ewl-HwCLuS1mZX0_Ru-48" value="" style="endArrow=none;html=1;rounded=0;exitX=1;exitY=0.5;exitDx=0;exitDy=0;" edge="1" parent="1" source="r9ewl-HwCLuS1mZX0_Ru-32">
          <mxGeometry width="50" height="50" relative="1" as="geometry">
            <mxPoint x="860" y="395" as="sourcePoint" />
            <mxPoint x="910" y="345" as="targetPoint" />
          </mxGeometry>
        </mxCell>
        <mxCell id="r9ewl-HwCLuS1mZX0_Ru-49" value="" style="endArrow=none;html=1;rounded=0;exitX=1;exitY=0.5;exitDx=0;exitDy=0;entryX=0.1;entryY=0.5;entryDx=0;entryDy=0;entryPerimeter=0;" edge="1" parent="1" source="r9ewl-HwCLuS1mZX0_Ru-33" target="r9ewl-HwCLuS1mZX0_Ru-3">
          <mxGeometry width="50" height="50" relative="1" as="geometry">
            <mxPoint x="850" y="410" as="sourcePoint" />
            <mxPoint x="900" y="360" as="targetPoint" />
          </mxGeometry>
        </mxCell>
        <mxCell id="r9ewl-HwCLuS1mZX0_Ru-50" value="" style="endArrow=none;html=1;rounded=0;exitX=1;exitY=0.5;exitDx=0;exitDy=0;entryX=0.1;entryY=0.5;entryDx=0;entryDy=0;entryPerimeter=0;" edge="1" parent="1" source="r9ewl-HwCLuS1mZX0_Ru-34" target="r9ewl-HwCLuS1mZX0_Ru-3">
          <mxGeometry width="50" height="50" relative="1" as="geometry">
            <mxPoint x="780" y="330" as="sourcePoint" />
            <mxPoint x="830" y="280" as="targetPoint" />
          </mxGeometry>
        </mxCell>
        <mxCell id="r9ewl-HwCLuS1mZX0_Ru-53" value="" style="endArrow=none;html=1;rounded=0;exitX=1;exitY=0.5;exitDx=0;exitDy=0;" edge="1" parent="1" source="r9ewl-HwCLuS1mZX0_Ru-35">
          <mxGeometry width="50" height="50" relative="1" as="geometry">
            <mxPoint x="850" y="420" as="sourcePoint" />
            <mxPoint x="900" y="370" as="targetPoint" />
          </mxGeometry>
        </mxCell>
        <mxCell id="r9ewl-HwCLuS1mZX0_Ru-54" value="" style="endArrow=none;html=1;rounded=0;exitX=1;exitY=0.5;exitDx=0;exitDy=0;" edge="1" parent="1" source="r9ewl-HwCLuS1mZX0_Ru-37">
          <mxGeometry width="50" height="50" relative="1" as="geometry">
            <mxPoint x="850" y="420" as="sourcePoint" />
            <mxPoint x="900" y="370" as="targetPoint" />
          </mxGeometry>
        </mxCell>
        <mxCell id="r9ewl-HwCLuS1mZX0_Ru-57" value="顧客" style="rounded=0;whiteSpace=wrap;html=1;strokeColor=none;" vertex="1" parent="1">
          <mxGeometry x="192" y="388" width="30" height="10" as="geometry" />
        </mxCell>
        <mxCell id="r9ewl-HwCLuS1mZX0_Ru-58" value="管理員" style="rounded=0;whiteSpace=wrap;html=1;strokeColor=none;" vertex="1" parent="1">
          <mxGeometry x="897" y="388" width="46" height="10" as="geometry" />
        </mxCell>
        <mxCell id="r9ewl-HwCLuS1mZX0_Ru-61" value="&lt;font style=&quot;font-size: 14px;&quot;&gt;3.3.1系統用例分析&lt;/font&gt;" style="rounded=0;whiteSpace=wrap;html=1;fillColor=default;strokeColor=none;" vertex="1" parent="1">
          <mxGeometry x="160" y="50" width="120" height="60" as="geometry" />
        </mxCell>
        <mxCell id="r9ewl-HwCLuS1mZX0_Ru-62" value="&lt;font style=&quot;font-size: 14px;&quot;&gt;3.1系統用例建設&lt;/font&gt;" style="rounded=0;whiteSpace=wrap;html=1;strokeColor=none;" vertex="1" parent="1">
          <mxGeometry x="577" y="7" width="120" height="60" as="geometry" />
        </mxCell>
      </root>
    </mxGraphModel>
  </diagram>
</mxfile>
